HIERARCHY
ROOT pelvis
{
	OFFSET 0.000000 0.000000 0.000000
	CHANNELS 6 Xposition Yposition Zposition Zrotation Xrotation Yrotation
	JOINT lfemur
	{
		OFFSET 11.446000 0.000000 0.000000
		CHANNELS 3 Zrotation Xrotation Yrotation
		JOINT ltibia
		{
			OFFSET 0.000000 -42.030400 0.000000
			CHANNELS 3 Zrotation Xrotation Yrotation
			JOINT lfoot
			{
				OFFSET 0.000000 -39.930200 0.000000
				CHANNELS 3 Zrotation Xrotation Yrotation
				JOINT ltoes
				{
					OFFSET 0.000000 0.000000 11.775800
					CHANNELS 3 Zrotation Xrotation Yrotation
					End Site
					{
					    OFFSET 0.000000 0.000000 5.000000
					}
				}
			}
		}
	}
	JOINT rfemur
	{
		OFFSET -11.446000 0.000000 0.000000
		CHANNELS 3 Zrotation Xrotation Yrotation
		JOINT rtibia
		{
			OFFSET 0.000000 -42.030400 0.000000
			CHANNELS 3 Zrotation Xrotation Yrotation
			JOINT rfoot
			{
				OFFSET 0.000000 -39.930200 0.000000
				CHANNELS 3 Zrotation Xrotation Yrotation
				JOINT rtoes
				{
					OFFSET 0.000000 0.000000 11.775800
					CHANNELS 3 Zrotation Xrotation Yrotation
					End Site
					{
					    OFFSET 0.000000 0.000000 5.000000
					}
				}
			}
		}
	}
	JOINT thorax
	{
		OFFSET 0.000000 11.255600 -5.000000
		CHANNELS 3 Zrotation Xrotation Yrotation
		JOINT head
		{
			OFFSET 0.000000 43.799300 0.000000
			CHANNELS 3 Zrotation Xrotation Yrotation
			End Site
			{
			    OFFSET 0.000000 5.000000 0.000000
			}
		}
		JOINT lclavicle
		{
			OFFSET 0.000000 39.863000 0.000000
			CHANNELS 3 Zrotation Xrotation Yrotation
			JOINT lhumerus
			{
				OFFSET 17.380600 4.958300 0.000000
				CHANNELS 3 Zrotation Xrotation Yrotation
				JOINT lradius
				{
					OFFSET 0.000000 -27.561300 0.000000
					CHANNELS 3 Zrotation Xrotation Yrotation
					JOINT lhand
					{
						OFFSET 0.000000 -26.933000 0.000000
						CHANNELS 3 Zrotation Xrotation Yrotation
						End Site
						{
						    OFFSET 0.000000 -5.000000 0.000000
						}
					}
				}
			}
		}
		JOINT rclavicle
		{
			OFFSET 0.000000 39.863000 0.000000
			CHANNELS 3 Zrotation Xrotation Yrotation
			JOINT rhumerus
			{
				OFFSET -17.380600 4.958300 0.000000
				CHANNELS 3 Zrotation Xrotation Yrotation
				JOINT rradius
				{
					OFFSET 0.000000 -27.561300 0.000000
					CHANNELS 3 Zrotation Xrotation Yrotation
					JOINT rhand
					{
						OFFSET 0.000000 -26.933000 0.000000
						CHANNELS 3 Zrotation Xrotation Yrotation
						End Site
						{
						    OFFSET 0.000000 -5.000000 0.000000
						}
					}
				}
			}
		}
	}
}
MOTION
Frames:	21
Frame Time:	0.0333333
-212.129 86.0975 86.2744 -0.762495 4.50656 139.485 6.23665 -12.2321 -19.4591 -0.572278 31.4845 -21.1518 -10.4363 -2.64185 -0.403192 -1.45115e-015 -5 1.59635e-015 -0.715277 -11.6405 41.0023 0.286905 34.7989 15.1329 0.0512479 -7.42474 -0.173872 -7.95139e-016 -5 -0 -6.54756 8.8712 -2.10025 10.1713 18.3346 -19.6899 -4.41391e-032 7.95139e-016 3.18055e-015 12.6668 -13.8711 58.4946 -0.367132 -0.1265 -101.795 7.15034 -8.91909 -9.03633 -4.41391e-032 7.95139e-016 3.18055e-015 -12.2606 -6.07054 -6.45689 12.5376 -16.0084 39.2941 -2.52446 -3.24562 9.7453 
-214.319 86.3029 84.9839 -0.609035 3.91837 134.643 5.59738 -10.4521 -14.6588 0.229301 29.8271 -19.1798 -7.40427 -4.26738 -0.381505 -1.0734e-015 -5 -3.1927e-015 -1.45713 -13.5199 40.9344 0.302456 34.8312 15.4381 2.93588 -5.98859 0.0373682 9.14446e-016 -5 -3.1927e-015 -7.62239 8.97836 -2.08366 10.0493 17.9171 -19.2718 -1.59028e-015 -7.95139e-016 3.18055e-015 12.8318 -14.6155 58.1813 -0.291853 -0.00295549 -102.289 7.36219 -9.02279 -9.0126 -1.59028e-015 -7.95139e-016 3.18055e-015 -13.3312 -6.68803 -6.49492 12.5651 -15.9782 39.5278 -2.61783 -3.16405 9.7401 
-216.612 86.673 83.7596 -0.70882 3.25918 130.048 4.53852 -8.89566 -8.19935 2.17686 27.3188 -18.9968 -4.5076 -4.47601 -0.224726 -1.59028e-015 -5 -0 -2.10729 -15.712 38.0358 0.189933 35.1224 13.2962 6.12595 -3.22462 0.138077 3.47828e-017 -5 3.99088e-016 -8.44577 8.95563 -1.95844 10.5098 17.2841 -19.1443 -7.95139e-016 1.59028e-015 -9.54166e-015 13.1388 -15.3399 57.6127 -0.191093 0.0311835 -102.761 7.57312 -8.87565 -8.9981 -7.95139e-016 1.59028e-015 -9.54166e-015 -13.9899 -7.15601 -8.98749 12.6749 -15.4488 41.0939 -2.71545 -3.38019 9.72788 
-218.91 87.093 82.5737 -0.97819 2.45823 125.553 3.93495 -7.80589 -2.45614 3.10343 24.3495 -19.5215 -3.85338 -4.39246 -0.176939 1.43132e-015 -5 -6.38541e-015 -2.33054 -17.6781 32.9322 -0.0616512 35.2534 8.08178 7.00508 -0.129232 0.0218937 1.86854e-015 -5 3.1927e-015 -8.62073 8.71102 -1.74999 11 16.7258 -18.9921 1.59028e-015 7.95139e-016 -0 13.592 -15.6925 56.8483 -0.457845 -0.00304476 -103.322 7.53824 -9.15818 -8.98164 1.59028e-015 7.95139e-016 -0 -14.3949 -7.39119 -11.0014 12.5384 -15.3591 42.0612 -2.38563 -3.27323 9.7545 
-221.074 87.5075 81.4514 -1.34249 1.67559 121.238 3.69688 -7.15207 1.28618 2.61478 21.7835 -18.8522 -4.43048 -4.16005 -0.192267 2.24628e-015 -5 -1.59635e-015 -2.12427 -18.8202 26.6301 -0.391539 34.7024 1.18021 4.66794 1.36706 -0.0914719 -2.78262e-016 -5 -3.1927e-015 -8.46476 8.39276 -1.5775 11.1221 16.3246 -18.2663 1.59028e-015 0 6.36111e-015 14.4282 -15.7631 56.305 -1.20252 0.0452837 -103.888 7.77148 -9.89262 -8.90685 1.59028e-015 0 6.36111e-015 -14.7408 -7.5427 -10.19 12.1317 -16.1732 40.9313 -1.67208 -2.75387 9.81546 
-223.033 87.8684 80.4208 -1.75722 1.1749 117.252 3.16016 -6.83019 2.88276 1.65602 19.9698 -16.1555 -4.52459 -3.43045 -0.166649 6.56007e-016 -5 -1.59635e-015 -1.79379 -19.1368 20.1766 -0.669671 33.8172 -4.50031 1.7841 0.500372 -0.107106 -8.34787e-016 -5 -9.57811e-015 -8.46625 8.17127 -1.47913 10.6714 15.9249 -16.9758 1.32417e-031 2.38542e-015 -3.18055e-015 15.3641 -15.5833 56.2307 -2.07259 -0.134333 -103.641 8.07662 -10.3249 -8.81891 1.32417e-031 2.38542e-015 -3.18055e-015 -15.1493 -7.8821 -8.09734 11.8585 -16.9407 39.1807 -1.2007 -2.47174 9.85174 
-224.789 88.1734 79.494 -2.15277 0.908137 113.501 2.18294 -6.69331 2.94427 1.03852 18.5548 -12.1284 -4.19512 -2.42977 -0.115477 -7.95139e-016 -5 -0 -1.36859 -18.9816 14.8366 -0.791179 33.2507 -7.24522 1.18392 -1.05793 -0.11119 -1.86854e-015 -5 -3.1927e-015 -8.52884 7.93613 -1.33866 9.76503 15.5713 -15.5115 1.59028e-015 -2.38542e-015 -3.18055e-015 16.2534 -15.2414 56.8944 -2.36644 -0.0870431 -102.463 8.10208 -10.1313 -8.83335 1.59028e-015 -2.38542e-015 -3.18055e-015 -15.423 -8.38761 -7.11144 11.9701 -16.8047 38.86 -1.36862 -2.68317 9.8377 
-226.329 88.463 78.6892 -2.42613 0.623939 109.73 1.27172 -6.51599 2.57089 0.855493 17.1117 -7.97807 -4.05205 -1.56416 -0.0819791 4.17394e-016 -5 4.78906e-015 -0.616102 -18.4097 11.319 -0.806135 32.9335 -7.71321 2.12388 -1.47217 -0.090159 5.56525e-016 -5 6.38541e-015 -8.30323 7.48997 -1.05177 8.73711 15.4855 -13.8738 3.18055e-015 -1.19271e-015 -6.36111e-015 16.842 -14.6077 58.3304 -1.71441 -0.121941 -101.684 7.78009 -9.81081 -8.89608 3.18055e-015 -1.19271e-015 -6.36111e-015 -15.3654 -8.75611 -7.1205 12.2797 -16.1271 40.0088 -1.86703 -3.04378 9.79739 
-227.656 88.7048 78.0187 -2.55887 0.213384 105.911 0.817226 -6.42076 2.41546 0.732533 16.0413 -4.09374 -3.81226 -0.998151 -0.0573958 2.00767e-015 -5 4.78906e-015 0.388592 -17.3709 9.27252 -0.780882 32.4615 -7.29525 2.49248 -0.990966 -0.0896649 -2.10715e-015 -5 3.1927e-015 -7.80682 6.93506 -0.701904 7.85293 15.5856 -11.8426 -1.10348e-032 3.97569e-016 1.59028e-015 17.3501 -13.7485 60.0275 -0.645215 -0.0593949 -102.049 7.64679 -9.48625 -8.94209 -1.10348e-032 3.97569e-016 1.59028e-015 -15.1 -8.86891 -6.43049 12.485 -15.7152 41.1425 -2.19234 -3.47107 9.76582 
-228.822 88.8687 77.4743 -2.69388 -0.144033 102.36 0.602558 -6.5824 2.51411 0.523985 15.5503 -0.587065 -3.23807 -0.542906 -0.0307736 1.45115e-015 -5 -1.59635e-015 1.15412 -16.0345 8.10571 -0.739946 31.6378 -6.63745 2.08479 -0.73489 -0.105894 7.95139e-016 -5 -0 -7.4658 6.48921 -0.485229 7.20255 15.4584 -9.71183 -1.59028e-015 3.97569e-016 3.18055e-015 17.8548 -12.733 61.1503 -0.0162266 -0.00349417 -102.67 7.40986 -8.68309 -9.02754 -1.59028e-015 3.97569e-016 3.18055e-015 -14.8433 -8.96086 -4.841 12.5739 -15.6709 41.434 -2.16967 -3.98248 9.75836 
-229.884 88.9606 77.0285 -2.96536 -0.267489 99.3809 0.288653 -7.00281 2.57378 0.314015 15.3508 2.38468 -2.68027 -0.14633 -0.0108217 1.45115e-015 -5 -1.59635e-015 1.36624 -14.7205 7.63207 -0.700426 30.517 -6.19307 1.75532 -0.942116 -0.119502 -5.16876e-016 -5 3.1927e-015 -7.53829 6.12516 -0.470485 6.84616 15.0024 -8.09787 -7.72434e-032 -2.78299e-015 -1.59028e-015 18.2539 -11.6809 61.5021 0.100728 -0.102438 -102.963 6.59555 -7.41829 -9.19297 -7.72434e-032 -2.78299e-015 -1.59028e-015 -14.5947 -9.10822 -3.5448 12.6178 -15.7343 41.0138 -1.85678 -4.05539 9.78211 
-230.821 89.0126 76.6725 -3.25714 -0.229799 97.0226 -0.079144 -7.42496 2.52811 0.160495 15.106 4.73277 -2.35531 0.108857 -0.00116174 -0 -5 -0 1.15486 -13.422 7.70321 -0.70282 29.0557 -6.54326 1.44069 -1.26199 -0.131034 1.00384e-015 -5 2.39453e-015 -7.78764 5.71122 -0.580079 6.85232 14.6281 -7.14499 -0 -2.5842e-015 -0 18.5825 -10.8215 61.7091 0.402686 -0.102542 -103.941 6.04146 -6.64481 -9.29671 -0 -2.5842e-015 -0 -14.2626 -9.01383 -2.68422 12.5277 -16.0304 39.8705 -1.44303 -3.55015 9.82219 
-231.589 89.0658 76.4306 -3.31183 -0.270766 95.135 -0.215576 -7.5774 2.55475 0.0552511 14.7931 6.55126 -2.12222 0.275503 0.00279914 2.52455e-015 -5 1.59635e-015 0.802888 -11.9567 7.78709 -0.884648 27.2728 -7.36128 0.802477 -1.5788 -0.149114 2.59411e-015 -5 2.39453e-015 -7.79708 5.36044 -0.725631 7.14446 14.6624 -6.48962 -2.06902e-032 4.96962e-016 2.38542e-015 18.7681 -10.2043 62.228 1.19304 -0.0801781 -105.961 6.61205 -6.95001 -9.21978 -2.06902e-032 4.96962e-016 2.38542e-015 -13.9049 -8.58102 -1.87583 12.334 -16.5008 38.519 -1.18937 -3.62737 9.84141 
-232.229 89.1361 76.3163 -3.12459 -0.455827 93.4783 -0.0950488 -7.47521 2.68563 0.0126247 14.4694 8.13551 -1.86902 0.537588 0.00249931 -5.16876e-016 -5 3.1927e-015 0.359714 -10.5758 7.31744 -1.31529 25.5318 -7.50102 0.281787 -1.77548 -0.166029 -9.3427e-016 -5 -1.59635e-015 -7.50338 5.27134 -0.828929 7.47334 14.958 -5.89611 -8.27607e-033 -1.19271e-015 -3.97569e-016 18.7322 -9.78849 62.9347 1.99049 -0.0878761 -107.21 7.4978 -7.5537 -9.0877 -8.27607e-033 -1.19271e-015 -3.97569e-016 -13.6531 -8.25142 -1.99364 12.3679 -16.4192 38.5569 -1.12378 -4.9512 9.83422 
-232.824 89.1929 76.3697 -2.94955 -0.804255 91.8307 -0.0208551 -7.48151 2.73154 0.0878983 14.3508 9.85776 -1.47617 0.871888 0.00172595 3.04142e-015 -5 -1.59635e-015 -0.363553 -9.7171 6.34234 -1.72774 24.0404 -6.94002 0.221054 -1.58267 -0.169129 6.34268e-016 -5 -1.84578e-015 -7.24473 5.36585 -0.810435 7.70049 15.3053 -5.48834 -2.04747e-033 -2.36057e-015 -4.96962e-017 18.4226 -9.59017 63.5627 2.37851 -0.104325 -106.411 7.20634 -7.57096 -9.11814 -2.04747e-033 -2.36057e-015 -4.96962e-017 -13.5536 -8.35167 -3.82405 12.7778 -15.4278 40.6178 -1.07168 -5.89446 9.8307 
-233.379 89.1907 76.3017 -2.9006 -0.130923 90.458 -0.132322 -7.68139 2.63207 0.285535 14.4169 11.6951 -0.7885 1.24934 0.000668335 1.78906e-015 -5 -0 -1.35872 -9.38932 4.78369 -2.01944 22.7474 -6.50082 0.226843 -1.27101 -0.170736 -2.14194e-015 -5 2.79362e-015 -7.25728 5.3925 -0.694161 7.97152 15.8224 -5.4257 -3.18055e-015 2.68359e-015 -0 17.9418 -9.61991 63.9882 2.54149 -0.123633 -105.144 6.14988 -7.26273 -9.25432 -3.18055e-015 2.68359e-015 -0 -13.5712 -8.51949 -6.11306 13.2255 -14.2955 42.9461 -0.921303 -4.74099 9.85302 
-233.816 89.1677 76.7469 -2.79229 -0.811786 89.3377 -0.110621 -8.2077 2.61223 0.491894 15.3657 13.0724 -0.190029 1.23217 -0.000484219 2.58438e-016 -5 -1.59635e-015 -2.31367 -8.77231 2.75758 -2.21385 20.7368 -6.71561 -0.0115148 -0.907004 -0.172017 -7.25573e-016 -5 7.98176e-016 -7.35004 5.28096 -0.634662 8.39642 16.669 -5.66058 0 4.47266e-016 -0 17.5547 -9.70551 64.032 2.64932 -0.103908 -105.487 6.03965 -7.50071 -9.25351 0 4.47266e-016 -0 -13.6199 -8.28087 -7.20493 13.4249 -13.7871 43.7174 -0.756341 -2.6003 9.88056 
-234.122 89.1851 77.1066 -2.51938 -0.686745 88.3953 0.255008 -8.19232 2.82179 0.606429 15.6758 13.7061 -0.0696485 1.4725 -0.00154219 1.80898e-015 -5 -3.1927e-015 -3.0016 -8.10253 1.07424 -2.37583 19.0054 -7.21378 -0.194044 -0.573403 -0.172537 -1.0734e-015 -5 -3.1927e-015 -7.29114 5.16784 -0.696995 8.78485 17.6795 -5.99332 -2.34489e-032 1.68967e-015 7.95139e-016 17.408 -9.64008 63.5476 2.48476 0.0305218 -107.009 7.19644 -8.30914 -9.07792 -2.34489e-032 1.68967e-015 7.95139e-016 -13.5979 -7.80907 -8.02089 13.5552 -13.4232 44.074 -0.72966 -1.7628 9.88916 
-234.378 89.2378 77.6787 -2.23714 -0.817586 87.6626 0.727431 -7.85794 3.07723 0.671519 15.4232 14.1844 -0.342061 1.87811 -0.00231638 9.93923e-016 -5 -0 -3.59574 -7.82499 0.347093 -2.59429 18.0461 -7.25038 -0.474273 0.499394 -0.165543 -2.52455e-015 -5 -1.59635e-015 -7.19533 5.1232 -0.751764 8.93492 18.5461 -6.25176 1.59028e-015 6.95746e-016 -7.95139e-016 17.286 -9.47149 62.7728 1.96928 -0.00362262 -107.91 8.11169 -8.89659 -8.92793 1.59028e-015 6.95746e-016 -7.95139e-016 -13.4718 -7.56403 -10.091 13.7982 -12.5383 45.8492 -0.803078 -2.27406 9.88951 
-234.647 89.2272 78.349 -2.08892 -0.662225 86.9494 0.988637 -7.67436 3.18524 0.773399 15.1776 14.9492 -0.540334 2.25442 -0.00261707 2.98177e-015 -5 -0 -4.24463 -8.18859 0.474493 -2.92501 18.0194 -6.63672 -1.06607 2.19595 -0.144803 -4.35344e-015 -5 4.78906e-015 -7.31501 5.07255 -0.700291 8.93683 19.1335 -6.45914 4.77083e-015 2.48481e-015 -0 17.1689 -9.60502 62.1905 1.4278 -0.113317 -107.901 8.02737 -8.96892 -8.92702 4.77083e-015 2.48481e-015 -0 -13.3437 -7.52427 -12.2766 13.9995 -11.62 48.0401 -0.838246 -2.50739 9.8913 
-234.878 89.137 79.1563 -1.96618 -0.332549 86.5966 1.18462 -7.81602 3.26468 0.865841 15.4978 15.3412 -0.753806 2.43314 -0.00256098 4.17484e-016 -5 -3.1927e-015 -4.73116 -8.59497 1.06323 -3.26787 18.276 -5.74649 -1.08448 3.68695 -0.120946 -2.90229e-015 -5 3.1927e-015 -7.60164 4.97372 -0.651964 9.01669 19.5032 -6.79913 -1.54487e-031 -5.56597e-015 -1.59028e-015 17.1898 -10.2138 61.8674 1.14826 -0.0744828 -107.878 7.84177 -8.95605 -8.95296 -1.54487e-031 -5.56597e-015 -1.59028e-015 -13.3127 -7.32342 -12.9427 14.072 -11.2807 48.814 -0.78243 -2.05087 9.88834 
